<svg version="1.1" id="Слой_1" xmlns="http://www.w3.org/2000/svg" xmlns:xlink="http://www.w3.org/1999/xlink" x="0" y="0" viewBox="0 0 453.5 81.2" xml:space="preserve"><defs><path id="SVGID_1_" d="M0 0h453.5v81.2H0z"/></defs><clipPath id="SVGID_2_"><use xlink:href="#SVGID_1_" overflow="visible"/></clipPath><path d="M41.6 27.9c0 3.2-1.2 7-7.4 7h-3.4V21.1h3.4c2.6 0 7.4.3 7.4 6.8m29.5 0C71.1 16.3 64.9 0 40.2 0H0v81.2h30.8V56h9.4c24.7 0 30.9-16.4 30.9-28.1m56.6 53.3h28.8V0h-29.6v38.1L106.3 0H77v81.2h29.6v-39l21.1 39zm93.5-40.9L246 0h-33.4l-17.4 32.2V0h-29.6v81.2h29.6V48.4l17.7 32.8h33.5l-25.2-40.9z" clip-path="url(#SVGID_2_)" fill="#54565a"/><defs><path id="SVGID_3_" d="M0 0h453.5v81.2H0z"/></defs><clipPath id="SVGID_4_"><use xlink:href="#SVGID_3_" overflow="visible"/></clipPath><path d="M290.4 44.5V29.7c-.8-1-1.8-1.9-3.1-2.6-1.2-.7-2.5-1-3.9-1.1-.5 0-1 .1-1.5.2s-1.1.3-1.6.7c-.5.3-1.1.7-1.5 1.3-.5.5-.9 1.2-1.3 2s-.7 1.8-.9 2.9c-.2 1.1-.3 2.5-.3 4 0 1.7.2 3.2.5 4.5s.8 2.4 1.4 3.4c.6.9 1.4 1.6 2.3 2.1.9.5 1.9.7 3.1.7.8 0 1.5-.1 2.2-.3s1.3-.5 1.9-.8c.6-.3 1.1-.7 1.6-1.1.4-.3.8-.7 1.1-1.1m61-3c.4-1.3.6-2.9.6-4.7s-.2-3.3-.6-4.7c-.4-1.3-.9-2.5-1.6-3.4s-1.5-1.6-2.5-2.1-2-.7-3.2-.7c-1.1 0-2.2.2-3.1.7-1 .5-1.8 1.1-2.5 2.1-.7.9-1.2 2-1.6 3.4-.4 1.3-.6 2.9-.6 4.7s.2 3.3.6 4.7c.4 1.3.9 2.5 1.6 3.4s1.5 1.6 2.5 2.1 2 .7 3.2.7c1.1 0 2.2-.2 3.2-.7s1.8-1.2 2.5-2.1c.6-.9 1.1-2 1.5-3.4m73.1-.3c.3-1.4.5-2.9.5-4.5 0-1.8-.2-3.3-.5-4.7-.3-1.3-.8-2.5-1.4-3.4-.6-.9-1.4-1.6-2.2-2-.9-.5-1.8-.7-2.9-.7-1.3 0-2.6.4-3.8 1-1.2.7-2.3 1.6-3.2 2.7v14.8c.3.4.7.8 1.2 1.2.5.4 1 .7 1.5 1.1.6.3 1.2.6 1.9.8s1.4.3 2.1.3c1.2 0 2.3-.3 3.2-.8s1.7-1.3 2.3-2.3c.5-1 .9-2.1 1.3-3.5m8.4-4.8c0 3.1-.4 5.7-1.2 8-.8 2.2-1.9 4.1-3.3 5.6-1.3 1.5-2.8 2.6-4.5 3.3-1.6.7-3.3 1.1-5.1 1.1-1.7 0-3.2-.3-4.6-1-1.4-.6-2.5-1.5-3.4-2.4h-.1c0 .5 0 1.1.1 1.9v16.5h-7.7V20.3h6.8l.3 3.7h.1c1-1.3 2.2-2.4 3.7-3.3s3.2-1.3 5.2-1.3c1.7 0 3.4.3 5.1 1s3.1 1.7 4.4 3.1 2.3 3.1 3.1 5.3c.7 2.1 1.1 4.7 1.1 7.6M395 40.5c0 2.7-.4 5-1.3 6.8-.5 1-1.1 2-1.9 2.9s-1.7 1.6-2.8 2.2c-1.1.6-2.3 1.1-3.6 1.4-1.4.3-2.9.5-4.5.5-3.2 0-5.8-.6-7.9-1.7-2.1-1.1-3.7-2.7-4.7-4.6-.6-1-1-2.2-1.3-3.4-.3-1.2-.4-2.6-.4-4.1V20.2h7.7v19.4c0 1.1.1 2.1.2 2.9.2.8.4 1.5.7 2.1.5 1 1.3 1.8 2.2 2.2 1 .5 2.1.7 3.4.7 1.4 0 2.6-.3 3.6-.8s1.7-1.4 2.2-2.5.7-2.6.7-4.5V20.1h7.7v20.4zm-35-3.6c0 2.6-.4 5-1.1 7.1-.7 2.1-1.8 4-3.2 5.5s-3 2.7-5 3.5-4.1 1.2-6.5 1.2c-2.5 0-4.7-.4-6.7-1.2s-3.6-2-5-3.5-2.4-3.4-3.1-5.5c-.7-2.1-1.1-4.5-1.1-7.1s.4-5 1.1-7.1 1.8-4 3.2-5.5 3-2.7 5-3.5 4.1-1.2 6.5-1.2c2.5 0 4.7.4 6.7 1.2 2 .8 3.6 2 5 3.5s2.4 3.4 3.1 5.5c.7 2.1 1.1 4.5 1.1 7.1m-34.7-10.2h-.7c-2.4 0-4.4.4-6.2 1.1-1.8.7-3.2 1.9-4.1 3.4v22.2h-7.7V20.2h6.4l.7 4.6h.1c.9-1.7 2.2-3 3.8-4s3.5-1.5 5.7-1.5c.8 0 1.5 0 2 .1v7.3zM298.1 54c0 1.9-.2 3.6-.5 5s-.7 2.6-1.3 3.7c-.7 1.3-1.6 2.3-2.7 3.3-1.1.9-2.3 1.7-3.7 2.3-1.4.6-2.9 1.1-4.5 1.4-1.6.3-3.4.5-5.2.5-1 0-2.1 0-3.1-.1s-1.9-.2-2.8-.3c-.9-.1-1.7-.3-2.4-.5s-1.3-.4-1.8-.6V62c1.4.5 2.9.9 4.5 1.1 1.6.3 3.2.4 5 .4 3.4 0 6.1-.7 8-2.1 1.9-1.4 2.8-3.5 2.8-6.4v-2.5c0-.7 0-1.2.1-1.7h-.1c-.5.4-1 .8-1.6 1.2-.6.4-1.3.8-2 1.1s-1.6.6-2.4.8c-.9.2-1.8.3-2.7.3-1.7 0-3.3-.3-4.9-.9-1.6-.6-3-1.6-4.2-3s-2.2-3.1-3-5.2c-.8-2.1-1.1-4.7-1.1-7.7s.4-5.6 1.2-7.9c.8-2.2 1.8-4.1 3.1-5.6s2.7-2.6 4.4-3.4c1.7-.8 3.4-1.1 5.1-1.1 1.9 0 3.6.4 5.1 1.3s2.7 1.9 3.7 3.3h.1l.3-3.7h6.8V54h-.2zm155.4 27.2V0h-196l-24.9 40.3 25.3 40.9h195.6z" clip-path="url(#SVGID_4_)" fill="#54565a"/></svg>